<svg width="17" height="18" viewBox="0 0 17 18" fill="none" xmlns="http://www.w3.org/2000/svg">
<path d="M15.8824 6.23597C15.7964 6.28333 13.7505 7.28264 13.7505 9.49835C13.8469 12.0252 16.3324 12.9114 16.375 12.9114C16.3324 12.9587 15.9998 14.1186 15.0145 15.3343C14.2326 16.3816 13.3647 17.4375 12.0469 17.4375C10.7933 17.4375 10.3433 16.7395 8.89688 16.7395C7.34353 16.7395 6.90401 17.4375 5.71472 17.4375C4.39686 17.4375 3.46472 16.325 2.64018 15.2876C1.56898 13.9298 0.6585 11.7989 0.626357 9.75294C0.604696 8.66876 0.840876 7.60303 1.44041 6.69781C2.28661 5.43406 3.79733 4.57619 5.4471 4.5479C6.71116 4.51039 7.83616 5.31169 8.60759 5.31169C9.34688 5.31169 10.729 4.5479 12.2928 4.5479C12.9678 4.54852 14.7679 4.72747 15.8824 6.23597ZM8.50068 4.33144C8.27568 3.34135 8.89688 2.35126 9.47545 1.7197C10.2147 0.955913 11.3824 0.4375 12.3893 0.4375C12.4536 1.42759 12.0462 2.39861 11.3181 3.10582C10.6647 3.8696 9.53973 4.44459 8.50068 4.33144Z" fill="#1A1A1A"/>
</svg>
