<svg width="21" height="9" viewBox="0 0 21 9" fill="none" xmlns="http://www.w3.org/2000/svg">
<path d="M20.7965 8.09752C20.6889 8.01626 20.3677 7.77366 20.1826 7.62917C19.8118 7.33979 19.3191 6.94438 18.8278 6.51785C18.3341 6.08915 17.8532 5.63881 17.4997 5.23873C17.3224 5.03813 17.1878 4.8619 17.1001 4.71648C17.0176 4.57971 17.0005 4.49892 17.0005 4.49892C17.0005 4.49892 17.0176 4.42051 17.1001 4.28375C17.1877 4.13833 17.3224 3.9621 17.4997 3.76149C17.8532 3.36142 18.3341 2.91108 18.8278 2.48238C19.3191 2.05585 19.8118 1.66044 20.1826 1.37106C20.3678 1.22657 20.6885 0.984303 20.7961 0.903045C21.0184 0.739289 21.0664 0.425952 20.9026 0.203604C20.7388 -0.0187454 20.4258 -0.0662441 20.2035 0.0975113L20.2019 0.0986958C20.0892 0.18383 19.7564 0.435229 19.5674 0.582705C19.1882 0.878623 18.6809 1.28558 18.1722 1.72728C17.6659 2.16683 17.1468 2.65061 16.7503 3.09935C16.5526 3.32316 16.3747 3.55002 16.2437 3.76746C16.1209 3.97118 16 4.22911 16 4.50012C16 4.77112 16.1209 5.02905 16.2437 5.23277C16.3748 5.45021 16.5526 5.67707 16.7503 5.90087C17.1468 6.34962 17.6659 6.8334 18.1722 7.27294C18.6809 7.71465 19.1882 8.1216 19.5674 8.41752C19.7564 8.56505 20.0891 8.81636 20.2017 8.90139L20.2031 8.90248C20.4255 9.06624 20.7388 9.01897 20.9026 8.79663C21.0663 8.57428 21.0188 8.26128 20.7965 8.09752Z" fill="white"/>
<path d="M12.7965 8.09751C12.6889 8.01625 12.3677 7.77365 12.1826 7.62916C11.8118 7.33978 11.3191 6.94437 10.8278 6.51782C10.3341 6.08913 9.85319 5.63878 9.49969 5.2387C9.32244 5.03809 9.18775 4.86187 9.10009 4.71644C9.01764 4.57968 9.00049 4.49889 9.00049 4.49889C9.00049 4.49889 9.01764 4.42047 9.10008 4.28371C9.18775 4.13829 9.32244 3.96206 9.49969 3.76145C9.85319 3.36137 10.3341 2.91103 10.8278 2.48233C11.3191 2.05579 11.8118 1.66038 12.1826 1.37099C12.3678 1.22651 12.6885 0.984235 12.7961 0.902976C13.0184 0.73922 13.0664 0.42588 12.9026 0.203529C12.7388 -0.0188208 12.4258 -0.0663204 12.2035 0.097436L12.2017 0.0988207C12.0887 0.184149 11.7562 0.435272 11.5674 0.582634C11.1882 0.878555 10.6809 1.28551 10.1722 1.72722C9.66594 2.16677 9.14681 2.65056 8.75031 3.0993C8.55256 3.32311 8.37475 3.54997 8.24366 3.76742C8.12085 3.97114 8 4.22907 8 4.50008C8 4.77109 8.12086 5.02902 8.24367 5.23274C8.37475 5.45018 8.55256 5.67704 8.75031 5.90085C9.14681 6.34959 9.66594 6.83338 10.1722 7.27293C10.6809 7.71464 11.1882 8.12159 11.5674 8.41752C11.7564 8.56505 12.0891 8.81636 12.2017 8.90139L12.2031 8.90248C12.4255 9.06624 12.7388 9.01897 12.9026 8.79662C13.0663 8.57428 13.0188 8.26128 12.7965 8.09751Z" fill="white" fill-opacity="0.6"/>
<path d="M4.79648 8.09751C4.6889 8.01625 4.36774 7.77365 4.1826 7.62916C3.81179 7.33978 3.31906 6.94437 2.8278 6.51782C2.33405 6.08913 1.85319 5.63878 1.49969 5.2387C1.32244 5.03809 1.18775 4.86187 1.10009 4.71644C1.01764 4.57968 1.00049 4.49889 1.00049 4.49889C1.00049 4.49889 1.01764 4.42047 1.10008 4.28371C1.18775 4.13829 1.32244 3.96206 1.49969 3.76145C1.85319 3.36137 2.33405 2.91103 2.8278 2.48233C3.31907 2.05579 3.8118 1.66038 4.18262 1.37099C4.36776 1.22651 4.68847 0.984235 4.79605 0.902976C5.0184 0.73922 5.06636 0.42588 4.9026 0.203529C4.73885 -0.0188208 4.42585 -0.0663204 4.2035 0.097436L4.20167 0.0988207C4.0887 0.184149 3.75622 0.435272 3.56739 0.582634C3.1882 0.878555 2.68093 1.28551 2.1722 1.72722C1.66594 2.16677 1.14681 2.65056 0.750306 3.0993C0.55256 3.32311 0.374749 3.54997 0.243664 3.76742C0.120854 3.97114 -2.30468e-06 4.22907 0 4.50008C2.30475e-06 4.77109 0.120858 5.02902 0.243668 5.23274C0.374753 5.45018 0.552563 5.67704 0.750308 5.90085C1.14681 6.34959 1.66594 6.83338 2.17218 7.27293C2.68091 7.71464 3.18818 8.12159 3.56736 8.41752C3.75641 8.56505 4.08913 8.81636 4.20171 8.90139L4.20315 8.90248C4.4255 9.06624 4.73881 9.01897 4.90257 8.79662C5.06632 8.57428 5.01881 8.26128 4.79648 8.09751Z" fill="white" fill-opacity="0.4"/>
</svg>
