<svg width="24" height="24" viewBox="0 0 24 24" fill="none" xmlns="http://www.w3.org/2000/svg">
<path d="M12 22.75C11.59 22.75 11.25 22.41 11.25 22V19.75H9C8.59 19.75 8.25 19.41 8.25 19C8.25 18.59 8.59 18.25 9 18.25H11.25V14.7101C7.88 14.3401 5.25 11.47 5.25 8C5.25 4.28 8.28 1.25 12 1.25C15.72 1.25 18.75 4.28 18.75 8C18.75 11.47 16.12 14.3301 12.75 14.7101V18.25H15C15.41 18.25 15.75 18.59 15.75 19C15.75 19.41 15.41 19.75 15 19.75H12.75V22C12.75 22.41 12.41 22.75 12 22.75ZM12 2.75C9.1 2.75 6.75 5.1 6.75 8C6.75 10.9 9.1 13.25 12 13.25C14.9 13.25 17.25 10.9 17.25 8C17.25 5.1 14.9 2.75 12 2.75Z" fill="#F6657E"/>
</svg>
