<svg width="22" height="20" viewBox="0 0 22 20" fill="none" xmlns="http://www.w3.org/2000/svg">
<path d="M20.1885 10.1941C20.1885 9.47471 20.1259 8.94971 19.9906 8.40527H11.1885V11.6525H16.3551C16.251 12.4594 15.6885 13.6747 14.4384 14.4913L14.4209 14.6L17.204 16.6123L17.3968 16.6303C19.1676 15.1039 20.1885 12.858 20.1885 10.1941" fill="#4285F4"/>
<path d="M11.188 18.75C13.7192 18.75 15.8441 17.9722 17.3963 16.6305L14.4379 14.4916C13.6463 15.0068 12.5838 15.3666 11.188 15.3666C8.70884 15.3666 6.6047 13.8402 5.85463 11.7305L5.74468 11.7392L2.85083 13.8295L2.81299 13.9277C4.35463 16.786 7.52129 18.75 11.188 18.75Z" fill="#34A853"/>
<path d="M5.8551 11.7307C5.65719 11.1863 5.54265 10.6029 5.54265 10.0002C5.54265 9.39735 5.65719 8.81403 5.84469 8.2696L5.83944 8.15365L2.90932 6.02979L2.81345 6.07235C2.17806 7.25847 1.81348 8.59044 1.81348 10.0002C1.81348 11.4099 2.17806 12.7418 2.81345 13.9279L5.8551 11.7307" fill="#FBBC05"/>
<path d="M11.188 4.63331C12.9484 4.63331 14.1359 5.34303 14.813 5.93613L17.4588 3.525C15.8339 2.11528 13.7192 1.25 11.188 1.25C7.52132 1.25 4.35464 3.21387 2.81299 6.07218L5.84423 8.26944C6.60472 6.15972 8.70887 4.63331 11.188 4.63331" fill="#EB4335"/>
</svg>
