<svg width="24" height="24" viewBox="0 0 24 24" fill="none" xmlns="http://www.w3.org/2000/svg">
<path d="M11.9999 1.25C12.8735 1.25 13.6478 1.54953 14.4735 2.04883C15.2733 2.53243 16.1874 3.24595 17.3348 4.1416L18.3729 4.95215C18.4219 4.99039 18.4706 5.02813 18.5184 5.06543C19.8943 6.13861 20.7838 6.83271 21.2675 7.8252C21.7508 8.8172 21.7504 9.9467 21.7499 11.6953V14.0273C21.7499 15.8719 21.7496 17.3327 21.5966 18.4756C21.439 19.6514 21.1071 20.603 20.3593 21.3535C19.611 22.1043 18.662 22.4384 17.4891 22.5967C16.3498 22.7504 14.894 22.75 13.0565 22.75H10.9432C9.10573 22.75 7.64997 22.7504 6.51062 22.5967C5.33774 22.4384 4.38875 22.1044 3.6405 21.3535C2.89261 20.603 2.56072 19.6514 2.4032 18.4756C2.25011 17.3327 2.24986 15.8719 2.24988 14.0273V11.6953C2.24931 9.94674 2.24902 8.81719 2.7323 7.8252C3.21598 6.83273 4.10554 6.13857 5.48132 5.06543C5.52911 5.02816 5.57787 4.99036 5.62683 4.95215L6.66492 4.1416C7.81239 3.24593 8.72646 2.53244 9.52625 2.04883C10.352 1.54951 11.1262 1.25002 11.9999 1.25ZM11.9999 2.75C11.5013 2.75002 10.9994 2.91073 10.3026 3.33203C9.58839 3.76391 8.74377 4.42148 7.54968 5.35352L6.54968 6.13379C4.97561 7.36243 4.39392 7.83951 4.08093 8.48145C3.76781 9.12395 3.74988 9.87866 3.74988 11.8799V13.9717C3.74988 15.8849 3.75135 17.2447 3.88953 18.2764C4.0249 19.2868 4.27932 19.8697 4.703 20.2949C5.12625 20.7196 5.70555 20.9737 6.71082 21.1094C7.73825 21.248 9.09303 21.25 10.9999 21.25H12.9999C14.9068 21.25 16.2615 21.248 17.2889 21.1094C18.2942 20.9737 18.8735 20.7196 19.2968 20.2949C19.7204 19.8697 19.9749 19.2868 20.1102 18.2764C20.2484 17.2447 20.2499 15.8849 20.2499 13.9717V11.8799C20.2499 9.87866 20.2319 9.12395 19.9188 8.48145C19.6058 7.83954 19.0241 7.36239 17.4501 6.13379L16.4501 5.35352C15.256 4.42149 14.4114 3.7639 13.6971 3.33203C13.0004 2.91076 12.4985 2.75 11.9999 2.75ZM16.9999 15.75C17.4141 15.75 17.7499 16.0858 17.7499 16.5V18.5C17.7499 18.9142 17.4141 19.25 16.9999 19.25H14.9999C14.5857 19.25 14.2499 18.9142 14.2499 18.5V16.5C14.2499 16.0858 14.5857 15.75 14.9999 15.75H16.9999Z" fill="#6B7280"/>
</svg>
