<svg width="21" height="26" viewBox="0 0 21 26" fill="none" xmlns="http://www.w3.org/2000/svg">
<path d="M9.75086 1.72355C10.1742 1.34528 10.8258 1.34528 11.2491 1.72355C13.8998 4.09164 16.5356 4.46472 19.0003 4.52019C19.5524 4.53261 20.0008 4.98221 19.9929 5.53443C19.8068 18.4611 15.9981 22.4691 10.901 24.8195C10.6467 24.9368 10.3533 24.9368 10.099 24.8195C5.00194 22.4691 1.19315 18.4611 1.00713 5.53443C0.999178 4.98221 1.4476 4.53261 1.99974 4.52019C4.46436 4.46472 7.10024 4.09164 9.75086 1.72355Z" stroke="#1493CC" stroke-width="1.5" stroke-linecap="round" stroke-linejoin="round"/>
<path d="M10.5 17C9.95333 17 9.5 16.5815 9.5 16.0769V9.92308C9.5 9.41846 9.95333 9 10.5 9C11.0467 9 11.5 9.41846 11.5 9.92308V16.0769C11.5 16.5815 11.0467 17 10.5 17Z" fill="#1493CC"/>
<path d="M13.5769 14H7.42308C6.91846 14 6.5 13.5467 6.5 13C6.5 12.4533 6.91846 12 7.42308 12H13.5769C14.0815 12 14.5 12.4533 14.5 13C14.5 13.5467 14.0815 14 13.5769 14Z" fill="#1493CC"/>
</svg>
