<svg width="19" height="16" viewBox="0 0 19 16" fill="none" xmlns="http://www.w3.org/2000/svg">
<path d="M18 4.59615V13.0962C18 13.5297 17.8278 13.9455 17.5213 14.252C17.2147 14.5585 16.7989 14.7308 16.3654 14.7308M16.3654 14.7308C15.9319 14.7308 15.516 14.5585 15.2095 14.252C14.903 13.9455 14.7308 13.5297 14.7308 13.0962V1.65385C14.7308 1.48043 14.6619 1.31412 14.5393 1.19151C14.4167 1.06889 14.2503 1 14.0769 1H1.65385C1.48044 1 1.31413 1.06889 1.19151 1.19151C1.06889 1.31412 1 1.48043 1 1.65385V13.4231C1 13.7699 1.13777 14.1026 1.38301 14.3477C1.62825 14.5929 1.96087 14.7308 2.30769 14.7308H16.3654Z" stroke="#149BD7" stroke-linecap="round" stroke-linejoin="round"/>
<path d="M10.8075 4.26904H4.92287V7.53827H10.8075V4.26904Z" stroke="#149BD7" stroke-linecap="round" stroke-linejoin="round"/>
<path d="M4.92287 11.4614H10.8075" stroke="#149BD7" stroke-linecap="round" stroke-linejoin="round"/>
</svg>
