<svg width="24" height="24" viewBox="0 0 24 24" fill="none" xmlns="http://www.w3.org/2000/svg">
<path d="M15 2.25C18.72 2.25 21.75 5.28 21.75 9C21.75 12.72 18.72 15.75 15 15.75C13.4085 15.75 11.9447 15.1935 10.7891 14.2676L4.87988 20.1777C5.34988 20.2477 6.02 20.2471 7 20.2471H9C9.40985 20.2471 9.74975 20.5873 9.75 20.9971C9.75 21.4071 9.41 21.7471 9 21.7471H7C4.97 21.7471 3.8598 21.7475 3.0498 20.9375C2.24995 20.1375 2.25 19.0269 2.25 16.9971V14.9971C2.25025 14.5873 2.59015 14.2471 3 14.2471C3.40985 14.2471 3.74975 14.5873 3.75 14.9971V16.9971C3.75 17.9769 3.75035 18.6472 3.82031 19.1172L9.72949 13.207C8.80537 12.0519 8.25 10.5898 8.25 9C8.25 5.28 11.28 2.25 15 2.25ZM15 3.75C12.1 3.75 9.75 6.1 9.75 9C9.75 11.9 12.1 14.25 15 14.25C17.9 14.25 20.25 11.9 20.25 9C20.25 6.1 17.9 3.75 15 3.75Z" fill="#02AFC7"/>
</svg>
