<svg width="24" height="24" viewBox="0 0 24 24" fill="none" xmlns="http://www.w3.org/2000/svg">
<path d="M17.1162 11.3027C19.0275 11.3027 20.8565 12.4319 21.625 14.2285C22.343 15.9074 21.9452 17.3488 21.1543 18.5469C20.511 19.5212 19.57 20.3878 18.7588 21.1348C18.6162 21.2661 18.477 21.3937 18.3447 21.5176C18.0116 21.8295 17.5708 22.001 17.1162 22.001C16.6616 22.001 16.2208 21.8295 15.8877 21.5176L15.8857 21.5166C15.7463 21.3853 15.6003 21.249 15.4492 21.1094C14.646 20.3671 13.7168 19.5083 13.0801 18.5459C12.2882 17.3489 11.8886 15.9094 12.6074 14.2285C13.3759 12.4319 15.2049 11.3028 17.1162 11.3027ZM17.1162 12.6982C15.7323 12.6983 14.4274 13.5224 13.8906 14.7773C13.4028 15.9181 13.6377 16.8611 14.2432 17.7764C14.7781 18.5848 15.5574 19.3068 16.3623 20.0527C16.5217 20.2005 16.682 20.3495 16.8418 20.5C16.912 20.5654 17.0101 20.6054 17.1162 20.6055C17.2227 20.6055 17.3214 20.5648 17.3916 20.499C17.5411 20.359 17.6915 20.2208 17.8408 20.083C18.657 19.3293 19.4495 18.5974 19.9902 17.7783C20.5953 16.8618 20.8291 15.9167 20.3418 14.7773C19.805 13.5223 18.5002 12.6982 17.1162 12.6982ZM8.26758 2.00195C8.73866 1.98657 9.17045 2.09275 9.63086 2.27148C10.0712 2.44246 10.5819 2.69837 11.2041 3.00977L14.332 4.5752C14.5532 4.68588 14.6885 4.74989 14.7822 4.79102C14.785 4.79098 14.7882 4.79102 14.791 4.79102C14.9106 4.79108 15.0218 4.82388 15.1201 4.87695C15.2219 4.88367 15.3748 4.88672 15.6475 4.88672H17.6309C18.4657 4.88669 19.1641 4.88717 19.7188 4.96387C20.3063 5.04516 20.8351 5.22433 21.2578 5.65918C21.6777 6.0913 21.848 6.62686 21.9258 7.22168C21.9998 7.78812 22 8.5027 22 9.36426V10.1396C22 10.5248 21.6879 10.8377 21.3027 10.8379C20.9174 10.8379 20.6045 10.525 20.6045 10.1396V9.41211C20.6045 8.49076 20.6028 7.86774 20.542 7.40234C20.4835 6.95531 20.3815 6.76015 20.2568 6.63184C20.1348 6.50626 19.9529 6.40457 19.5273 6.3457C19.0796 6.28378 18.4784 6.28223 17.5811 6.28223H15.5898C15.5554 6.28224 15.5215 6.28031 15.4883 6.28027V9.6748C15.4883 10.06 15.1762 10.3728 14.791 10.373C14.4057 10.373 14.0928 10.0601 14.0928 9.6748V6.00781C13.9881 5.95878 13.8774 5.90758 13.7598 5.84863C13.7428 5.84013 13.7253 5.83192 13.708 5.82324L10.6084 4.27148C9.95002 3.94202 9.49808 3.71676 9.12598 3.57227C9.07394 3.55206 9.02377 3.53586 8.97656 3.51953V16.0186C9.44456 16.1026 9.87376 16.2816 10.25 16.4668C10.4571 16.5687 10.6589 16.6777 10.8457 16.7793L10.874 16.7949C11.054 16.8928 11.2195 16.9822 11.3818 17.0635C11.7264 17.2359 11.8658 17.6554 11.6934 18C11.5209 18.3445 11.1023 18.4838 10.7578 18.3115C10.5733 18.2192 10.3875 18.1184 10.2129 18.0234L10.1797 18.0049C9.99103 17.9023 9.81217 17.8065 9.63379 17.7188C9.27413 17.5418 8.95561 17.4214 8.65332 17.3799C7.9615 17.2849 7.39693 17.6145 6.5293 18.1211L6.47656 18.1514C5.90089 18.4875 5.42261 18.7672 5.02637 18.9473C4.62565 19.1293 4.18956 19.2682 3.72949 19.1855C3.2323 19.0962 2.78713 18.8274 2.47168 18.4336C2.1828 18.0729 2.0865 17.6266 2.04297 17.1816C1.99985 16.7407 1.99999 16.1769 2 15.4941V7.78125C1.99999 7.26494 1.99934 6.8281 2.03418 6.4668C2.07114 6.08378 2.15143 5.73076 2.34277 5.39258C2.53484 5.05328 2.79638 4.80476 3.10547 4.58008C3.39531 4.36944 3.76586 4.15256 4.20117 3.89844C4.21061 3.89293 4.22097 3.88738 4.23047 3.88184L5.40039 3.19824C6.00206 2.84696 6.49517 2.55961 6.92383 2.36035C7.37221 2.15194 7.79642 2.01735 8.26758 2.00195ZM7.51172 3.62598C7.14926 3.7945 6.71247 4.04844 6.07617 4.41992L4.93359 5.08691C4.46208 5.3622 4.1524 5.54332 3.92578 5.70801C3.71263 5.86292 3.61816 5.97232 3.55762 6.0791C3.49649 6.18709 3.45004 6.32965 3.42383 6.60156C3.39624 6.88798 3.39551 7.25678 3.39551 7.81348V15.457C3.39551 16.186 3.39596 16.6811 3.43164 17.0459C3.46771 17.4146 3.53104 17.5247 3.56055 17.5615C3.66879 17.6966 3.81744 17.7839 3.97656 17.8125C4.01033 17.8184 4.12415 17.8245 4.44922 17.6768C4.77254 17.5298 5.18868 17.287 5.80566 16.9268C5.85479 16.8981 5.90583 16.8691 5.95703 16.8389C6.41505 16.5688 6.9559 16.2496 7.58105 16.083V3.5957C7.55877 3.60563 7.53501 3.61515 7.51172 3.62598ZM17.124 15.2559C17.6378 15.2559 18.0547 15.6728 18.0547 16.1865C18.0547 16.7003 17.6378 17.1172 17.124 17.1172H17.1162C16.6025 17.1172 16.1855 16.7003 16.1855 16.1865C16.1856 15.6728 16.6025 15.2559 17.1162 15.2559H17.124Z" fill="#0C0C1D"/>
</svg>
