<svg width="24" height="24" viewBox="0 0 24 24" fill="none" xmlns="http://www.w3.org/2000/svg">
<path d="M18.6899 11.53C18.1199 11.38 17.4499 11.3 16.6499 11.3C15.5399 11.3 15.1299 11.57 14.5599 12C14.5299 12.02 14.4999 12.05 14.4699 12.08L13.5199 13.09C12.7199 13.93 11.2799 13.94 10.4799 13.08L9.52993 12.08C9.49993 12.05 9.46993 12.02 9.43993 12C8.86993 11.57 8.45993 11.3 7.34993 11.3C6.54993 11.3 5.87993 11.38 5.30993 11.53C2.92993 12.17 2.92993 14.06 2.92993 15.72V16.65C2.92993 19.16 2.92993 22 8.27993 22H15.7199C19.2699 22 21.0699 20.2 21.0699 16.65V15.72C21.0699 14.06 21.0699 12.17 18.6899 11.53ZM14.3299 18.4H9.66993C9.28993 18.4 8.97993 18.09 8.97993 17.7C8.97993 17.31 9.28993 17 9.66993 17H14.3299C14.7099 17 15.0199 17.31 15.0199 17.7C15.0199 18.09 14.7099 18.4 14.3299 18.4ZM12.6679 2.67C12.6679 2.49231 12.5973 2.32189 12.4717 2.19624C12.346 2.07059 12.1756 2 11.9979 2C11.8202 2 11.6498 2.07059 11.5242 2.19624C11.3985 2.32189 11.3279 2.49231 11.3279 2.67V4H12.6779V2.67H12.6679Z" fill="#DBDBDB"/>
<path d="M19.21 8.42V10.12C19.17 10.1 19.12 10.09 19.08 10.08H19.07C18.36 9.89 17.57 9.8 16.65 9.8C15.11 9.8 14.38 10.25 13.72 10.75C13.58 10.85 13.48 10.95 13.38 11.05L12.43 12.06C12.33 12.16 12.17 12.22 12 12.22C11.9205 12.2227 11.8413 12.2089 11.7674 12.1797C11.6934 12.1505 11.6262 12.1063 11.57 12.05L10.59 11.02C10.49 10.91 10.37 10.82 10.34 10.8C9.62004 10.25 8.89004 9.8 7.35004 9.8C6.43004 9.8 5.64004 9.89 4.92004 10.08C4.88004 10.09 4.83004 10.1 4.79004 10.12V8.42C4.79004 6.35 4.79004 4 9.21004 4H11.33V7.45L10.68 6.8C10.5522 6.68207 10.3838 6.61797 10.2098 6.62102C10.0359 6.62408 9.86988 6.69407 9.74624 6.81642C9.62259 6.93877 9.55088 7.10408 9.546 7.27796C9.54112 7.45184 9.60345 7.62091 9.72004 7.75L11.52 9.55C11.53 9.56 11.54 9.56 11.54 9.57C11.6 9.62 11.67 9.67 11.74 9.7C11.83 9.73 11.91 9.75 12 9.75C12.09 9.75 12.17 9.73 12.26 9.7C12.34 9.67 12.41 9.62 12.48 9.55L14.28 7.75C14.3966 7.62091 14.459 7.45184 14.4541 7.27796C14.4492 7.10408 14.3775 6.93877 14.2538 6.81642C14.1302 6.69407 13.9642 6.62408 13.7902 6.62102C13.6163 6.61797 13.4479 6.68207 13.32 6.8L12.67 7.45V4H14.79C19.21 4 19.21 6.35 19.21 8.42Z" fill="#DBDBDB"/>
</svg>
