<svg width="24" height="24" viewBox="0 0 24 24" fill="none" xmlns="http://www.w3.org/2000/svg">
<path d="M17.4396 19.0254C17.8801 19.0255 18.2372 19.3828 18.2374 19.8232C18.2374 20.4072 17.9381 20.8838 17.5695 21.2324C17.2025 21.5793 16.7138 21.8546 16.1769 22.0693C15.0984 22.5007 13.6629 22.75 12.1183 22.75C10.5739 22.7499 9.13906 22.5006 8.06067 22.0693C7.52375 21.8546 7.03502 21.5793 6.66809 21.2324C6.29944 20.8838 6.00012 20.4072 6.00012 19.8232C6.00038 19.3828 6.3575 19.0255 6.79797 19.0254C7.23874 19.0254 7.5968 19.3835 7.5968 19.8242C7.59686 19.8322 7.59975 19.9162 7.76477 20.0723C7.93627 20.2345 8.22769 20.4176 8.65344 20.5879C9.50043 20.9266 10.7251 21.1542 12.1183 21.1543C13.5117 21.1543 14.737 20.9266 15.5841 20.5879C16.0099 20.4176 16.3013 20.2345 16.4728 20.0723C16.6414 19.9128 16.6408 19.828 16.6407 19.8232C16.641 19.3827 16.999 19.0254 17.4396 19.0254ZM12.1183 2C14.9098 2 17.173 4.26317 17.173 7.05469C17.1729 9.57439 15.3291 11.6621 12.9171 12.0449V18.7598C12.917 19.2003 12.5598 19.5574 12.1193 19.5576C11.6785 19.5576 11.3205 19.2005 11.3204 18.7598V12.0449C8.90842 11.6621 7.06467 9.57439 7.06458 7.05469C7.06458 4.26333 9.32699 2.00026 12.1183 2ZM12.1183 3.5957C10.2085 3.59597 8.66028 5.14487 8.66028 7.05469C8.66039 8.96442 10.2086 10.5124 12.1183 10.5127C14.0282 10.5127 15.5772 8.96458 15.5773 7.05469C15.5773 5.1447 14.0283 3.5957 12.1183 3.5957Z" fill="#161616"/>
</svg>
