<svg width="20" height="20" viewBox="0 0 20 20" fill="none" xmlns="http://www.w3.org/2000/svg">
<path d="M9.99984 18.9582C5.05817 18.9582 1.0415 14.9415 1.0415 9.99984C1.0415 5.05817 5.05817 1.0415 9.99984 1.0415C14.9415 1.0415 18.9582 5.05817 18.9582 9.99984C18.9582 14.9415 14.9415 18.9582 9.99984 18.9582ZM9.99984 2.2915C5.74984 2.2915 2.2915 5.74984 2.2915 9.99984C2.2915 14.2498 5.74984 17.7082 9.99984 17.7082C14.2498 17.7082 17.7082 14.2498 17.7082 9.99984C17.7082 5.74984 14.2498 2.2915 9.99984 2.2915Z" fill="#FFCA42"/>
<path d="M8.8167 12.9832C8.65003 12.9832 8.4917 12.9165 8.37503 12.7998L6.0167 10.4415C5.77503 10.1998 5.77503 9.79984 6.0167 9.55817C6.25837 9.3165 6.65837 9.3165 6.90003 9.55817L8.8167 11.4748L13.1 7.1915C13.3417 6.94984 13.7417 6.94984 13.9834 7.1915C14.225 7.43317 14.225 7.83317 13.9834 8.07484L9.25837 12.7998C9.1417 12.9165 8.98337 12.9832 8.8167 12.9832Z" fill="#FFCA42"/>
</svg>
